<mxfile host="app.diagrams.net" agent="Mozilla/5.0 (Windows NT 10.0; Win64; x64) AppleWebKit/537.36 (KHTML, like Gecko) Chrome/128.0.0.0 Safari/537.36" version="24.7.16">
  <diagram name="Seite-1" id="bP-ypP7S-nWM_vMK4z2l">
    <mxGraphModel dx="1434" dy="772" grid="1" gridSize="10" guides="1" tooltips="1" connect="1" arrows="1" fold="1" page="1" pageScale="1" pageWidth="827" pageHeight="1169" math="0" shadow="0">
      <root>
        <mxCell id="0" />
        <mxCell id="1" parent="0" />
        <mxCell id="r8GNynpT9bCfzE9Kq-w6-1" value="Beckhoff - SPS" style="rounded=0;whiteSpace=wrap;html=1;verticalAlign=top;fillColor=#C7DAFC;strokeColor=#6c8ebf;" parent="1" vertex="1">
          <mxGeometry x="220" y="100" width="140" height="80" as="geometry" />
        </mxCell>
        <mxCell id="r8GNynpT9bCfzE9Kq-w6-2" value="TF5120" style="rounded=0;whiteSpace=wrap;html=1;verticalAlign=middle;fillColor=#dae8fc;strokeColor=#6c8ebf;" parent="1" vertex="1">
          <mxGeometry x="230" y="140" width="120" height="30" as="geometry" />
        </mxCell>
        <mxCell id="r8GNynpT9bCfzE9Kq-w6-3" value="EL6695-1001" style="rounded=0;whiteSpace=wrap;html=1;verticalAlign=middle;fillColor=#C7DAFC;strokeColor=#6c8ebf;horizontal=0;" parent="1" vertex="1">
          <mxGeometry x="360" y="100" width="30" height="80" as="geometry" />
        </mxCell>
        <mxCell id="r8GNynpT9bCfzE9Kq-w6-4" value="KR C5 Micro" style="rounded=0;whiteSpace=wrap;html=1;verticalAlign=top;fillColor=#f8cecc;strokeColor=#b85450;" parent="1" vertex="1">
          <mxGeometry x="480" y="100" width="140" height="80" as="geometry" />
        </mxCell>
        <mxCell id="r8GNynpT9bCfzE9Kq-w6-5" value="KUKA.PLC&lt;div&gt;mxAutomation&lt;/div&gt;" style="rounded=0;whiteSpace=wrap;html=1;verticalAlign=middle;fillColor=#ffe6cc;strokeColor=#d79b00;" parent="1" vertex="1">
          <mxGeometry x="490" y="130" width="120" height="40" as="geometry" />
        </mxCell>
        <mxCell id="r8GNynpT9bCfzE9Kq-w6-6" value="KR 6 R700-2" style="rounded=0;whiteSpace=wrap;html=1;verticalAlign=middle;fillColor=#f8cecc;strokeColor=#b85450;" parent="1" vertex="1">
          <mxGeometry x="480" y="200" width="140" height="30" as="geometry" />
        </mxCell>
        <mxCell id="r8GNynpT9bCfzE9Kq-w6-7" value="" style="endArrow=none;html=1;rounded=0;entryX=1;entryY=0.5;entryDx=0;entryDy=0;strokeWidth=2;exitX=0;exitY=0.5;exitDx=0;exitDy=0;" parent="1" source="r8GNynpT9bCfzE9Kq-w6-4" target="r8GNynpT9bCfzE9Kq-w6-3" edge="1">
          <mxGeometry width="50" height="50" relative="1" as="geometry">
            <mxPoint x="420" y="140" as="sourcePoint" />
            <mxPoint x="400" y="330" as="targetPoint" />
          </mxGeometry>
        </mxCell>
        <mxCell id="r8GNynpT9bCfzE9Kq-w6-10" value="" style="endArrow=none;html=1;rounded=0;entryX=0.5;entryY=0;entryDx=0;entryDy=0;strokeWidth=2;exitX=0.5;exitY=1;exitDx=0;exitDy=0;" parent="1" source="r8GNynpT9bCfzE9Kq-w6-4" target="r8GNynpT9bCfzE9Kq-w6-6" edge="1">
          <mxGeometry width="50" height="50" relative="1" as="geometry">
            <mxPoint x="690" y="150" as="sourcePoint" />
            <mxPoint x="630" y="150" as="targetPoint" />
          </mxGeometry>
        </mxCell>
        <mxCell id="r8GNynpT9bCfzE9Kq-w6-11" value="Ethernet" style="text;html=1;align=center;verticalAlign=middle;whiteSpace=wrap;rounded=0;fontStyle=2" parent="1" vertex="1">
          <mxGeometry x="410" y="114" width="60" height="30" as="geometry" />
        </mxCell>
        <mxCell id="F6-UnYbG2vp0ScXQqrLx-6" style="edgeStyle=orthogonalEdgeStyle;rounded=0;orthogonalLoop=1;jettySize=auto;html=1;exitX=1;exitY=0.5;exitDx=0;exitDy=0;endArrow=none;endFill=0;strokeWidth=2;" parent="1" source="F6-UnYbG2vp0ScXQqrLx-1" target="F6-UnYbG2vp0ScXQqrLx-3" edge="1">
          <mxGeometry relative="1" as="geometry" />
        </mxCell>
        <mxCell id="F6-UnYbG2vp0ScXQqrLx-1" value="Beckhoff - SPS" style="rounded=0;whiteSpace=wrap;html=1;verticalAlign=top;fillColor=#C7DAFC;strokeColor=#6c8ebf;" parent="1" vertex="1">
          <mxGeometry x="220" y="370" width="140" height="80" as="geometry" />
        </mxCell>
        <mxCell id="F6-UnYbG2vp0ScXQqrLx-2" value="TF6310" style="rounded=0;whiteSpace=wrap;html=1;verticalAlign=middle;fillColor=#dae8fc;strokeColor=#6c8ebf;" parent="1" vertex="1">
          <mxGeometry x="230" y="410" width="120" height="30" as="geometry" />
        </mxCell>
        <mxCell id="F6-UnYbG2vp0ScXQqrLx-5" style="edgeStyle=orthogonalEdgeStyle;rounded=0;orthogonalLoop=1;jettySize=auto;html=1;endArrow=none;endFill=0;strokeWidth=2;" parent="1" source="F6-UnYbG2vp0ScXQqrLx-3" target="F6-UnYbG2vp0ScXQqrLx-4" edge="1">
          <mxGeometry relative="1" as="geometry" />
        </mxCell>
        <mxCell id="F6-UnYbG2vp0ScXQqrLx-3" value="CB2" style="rounded=0;whiteSpace=wrap;html=1;verticalAlign=top;fillColor=#f8cecc;strokeColor=#b85450;" parent="1" vertex="1">
          <mxGeometry x="480" y="395" width="140" height="30" as="geometry" />
        </mxCell>
        <mxCell id="F6-UnYbG2vp0ScXQqrLx-4" value="UR5" style="rounded=0;whiteSpace=wrap;html=1;verticalAlign=middle;fillColor=#f8cecc;strokeColor=#b85450;" parent="1" vertex="1">
          <mxGeometry x="480" y="450" width="140" height="30" as="geometry" />
        </mxCell>
        <mxCell id="F6-UnYbG2vp0ScXQqrLx-7" value="Ethernet" style="text;html=1;align=center;verticalAlign=middle;whiteSpace=wrap;rounded=0;fontStyle=2" parent="1" vertex="1">
          <mxGeometry x="383.5" y="380" width="60" height="30" as="geometry" />
        </mxCell>
        <mxCell id="F6-UnYbG2vp0ScXQqrLx-10" value="TCP/IP" style="text;html=1;align=center;verticalAlign=middle;whiteSpace=wrap;rounded=0;fontStyle=2" parent="1" vertex="1">
          <mxGeometry x="383.5" y="410" width="60" height="30" as="geometry" />
        </mxCell>
        <mxCell id="X5R0JDHQ25qrfv0_9PE1-14" style="edgeStyle=orthogonalEdgeStyle;rounded=0;orthogonalLoop=1;jettySize=auto;html=1;exitX=1;exitY=0.5;exitDx=0;exitDy=0;entryX=0;entryY=0.5;entryDx=0;entryDy=0;endArrow=none;endFill=0;strokeWidth=2;" parent="1" source="X5R0JDHQ25qrfv0_9PE1-1" target="X5R0JDHQ25qrfv0_9PE1-4" edge="1">
          <mxGeometry relative="1" as="geometry" />
        </mxCell>
        <mxCell id="X5R0JDHQ25qrfv0_9PE1-1" value="Beckhoff - SPS" style="rounded=0;whiteSpace=wrap;html=1;verticalAlign=top;fillColor=#C7DAFC;strokeColor=#6c8ebf;" parent="1" vertex="1">
          <mxGeometry x="90" y="585" width="140" height="80" as="geometry" />
        </mxCell>
        <mxCell id="X5R0JDHQ25qrfv0_9PE1-2" value="TF6100&lt;div&gt;(OPC UA Server)&lt;/div&gt;" style="rounded=0;whiteSpace=wrap;html=1;verticalAlign=top;fillColor=#dae8fc;strokeColor=#6c8ebf;" parent="1" vertex="1">
          <mxGeometry x="100" y="610" width="120" height="45" as="geometry" />
        </mxCell>
        <mxCell id="X5R0JDHQ25qrfv0_9PE1-13" style="edgeStyle=orthogonalEdgeStyle;rounded=0;orthogonalLoop=1;jettySize=auto;html=1;entryX=0;entryY=0.5;entryDx=0;entryDy=0;endArrow=none;endFill=0;strokeWidth=2;" parent="1" source="X5R0JDHQ25qrfv0_9PE1-4" target="X5R0JDHQ25qrfv0_9PE1-8" edge="1">
          <mxGeometry relative="1" as="geometry" />
        </mxCell>
        <mxCell id="X5R0JDHQ25qrfv0_9PE1-4" value="PC" style="rounded=0;whiteSpace=wrap;html=1;verticalAlign=top;fillColor=#d5e8d4;strokeColor=#82b366;" parent="1" vertex="1">
          <mxGeometry x="350" y="585" width="140" height="80" as="geometry" />
        </mxCell>
        <mxCell id="X5R0JDHQ25qrfv0_9PE1-5" value="RobotStudio&lt;div&gt;(OPC UA Client)&lt;/div&gt;" style="rounded=0;whiteSpace=wrap;html=1;verticalAlign=top;fillColor=#EAFFE8;strokeColor=#82b366;" parent="1" vertex="1">
          <mxGeometry x="360" y="610" width="120" height="45" as="geometry" />
        </mxCell>
        <mxCell id="X5R0JDHQ25qrfv0_9PE1-7" style="edgeStyle=orthogonalEdgeStyle;rounded=0;orthogonalLoop=1;jettySize=auto;html=1;endArrow=none;endFill=0;strokeWidth=2;" parent="1" source="X5R0JDHQ25qrfv0_9PE1-8" target="X5R0JDHQ25qrfv0_9PE1-9" edge="1">
          <mxGeometry relative="1" as="geometry" />
        </mxCell>
        <mxCell id="X5R0JDHQ25qrfv0_9PE1-8" value="KR C5 Micro" style="rounded=0;whiteSpace=wrap;html=1;verticalAlign=top;fillColor=#f8cecc;strokeColor=#b85450;" parent="1" vertex="1">
          <mxGeometry x="610" y="610" width="140" height="30" as="geometry" />
        </mxCell>
        <mxCell id="X5R0JDHQ25qrfv0_9PE1-9" value="KR 6 R700-2" style="rounded=0;whiteSpace=wrap;html=1;verticalAlign=middle;fillColor=#f8cecc;strokeColor=#b85450;" parent="1" vertex="1">
          <mxGeometry x="610" y="665" width="140" height="30" as="geometry" />
        </mxCell>
        <mxCell id="X5R0JDHQ25qrfv0_9PE1-15" value="Ethernet" style="text;html=1;align=center;verticalAlign=middle;whiteSpace=wrap;rounded=0;fontStyle=2" parent="1" vertex="1">
          <mxGeometry x="260" y="594" width="60" height="30" as="geometry" />
        </mxCell>
        <mxCell id="X5R0JDHQ25qrfv0_9PE1-16" value="OPC UA" style="text;html=1;align=center;verticalAlign=middle;whiteSpace=wrap;rounded=0;fontStyle=2" parent="1" vertex="1">
          <mxGeometry x="260" y="625" width="60" height="30" as="geometry" />
        </mxCell>
        <mxCell id="X5R0JDHQ25qrfv0_9PE1-17" value="Ethernet" style="text;html=1;align=center;verticalAlign=middle;whiteSpace=wrap;rounded=0;fontStyle=2" parent="1" vertex="1">
          <mxGeometry x="520" y="595" width="60" height="30" as="geometry" />
        </mxCell>
        <mxCell id="X5R0JDHQ25qrfv0_9PE1-18" value="TCP/IP" style="text;html=1;align=center;verticalAlign=middle;whiteSpace=wrap;rounded=0;fontStyle=2" parent="1" vertex="1">
          <mxGeometry x="520" y="625" width="60" height="30" as="geometry" />
        </mxCell>
        <mxCell id="X5R0JDHQ25qrfv0_9PE1-23" style="edgeStyle=orthogonalEdgeStyle;rounded=0;orthogonalLoop=1;jettySize=auto;html=1;entryX=0;entryY=0.5;entryDx=0;entryDy=0;endArrow=none;endFill=0;strokeWidth=2;" parent="1" source="X5R0JDHQ25qrfv0_9PE1-19" target="X5R0JDHQ25qrfv0_9PE1-21" edge="1">
          <mxGeometry relative="1" as="geometry" />
        </mxCell>
        <mxCell id="X5R0JDHQ25qrfv0_9PE1-19" value="Beckhoff - SPS" style="rounded=0;whiteSpace=wrap;html=1;verticalAlign=top;fillColor=#C7DAFC;strokeColor=#6c8ebf;" parent="1" vertex="1">
          <mxGeometry x="220" y="780" width="140" height="80" as="geometry" />
        </mxCell>
        <mxCell id="X5R0JDHQ25qrfv0_9PE1-20" value="TF6311" style="rounded=0;whiteSpace=wrap;html=1;verticalAlign=middle;fillColor=#dae8fc;strokeColor=#6c8ebf;" parent="1" vertex="1">
          <mxGeometry x="230" y="820" width="120" height="30" as="geometry" />
        </mxCell>
        <mxCell id="X5R0JDHQ25qrfv0_9PE1-27" style="edgeStyle=orthogonalEdgeStyle;rounded=0;orthogonalLoop=1;jettySize=auto;html=1;exitX=0.5;exitY=1;exitDx=0;exitDy=0;endArrow=none;endFill=0;strokeWidth=2;" parent="1" source="X5R0JDHQ25qrfv0_9PE1-21" target="X5R0JDHQ25qrfv0_9PE1-26" edge="1">
          <mxGeometry relative="1" as="geometry" />
        </mxCell>
        <mxCell id="X5R0JDHQ25qrfv0_9PE1-21" value="OmniCore C30" style="rounded=0;whiteSpace=wrap;html=1;verticalAlign=top;fillColor=#f8cecc;strokeColor=#b85450;" parent="1" vertex="1">
          <mxGeometry x="480" y="780" width="140" height="80" as="geometry" />
        </mxCell>
        <mxCell id="X5R0JDHQ25qrfv0_9PE1-22" value="EGM&lt;div&gt;&lt;span style=&quot;background-color: initial;&quot;&gt;&lt;font style=&quot;font-size: 10px;&quot;&gt;External Guided Motion&lt;/font&gt;&lt;/span&gt;&lt;/div&gt;" style="rounded=0;whiteSpace=wrap;html=1;verticalAlign=middle;fillColor=#ffe6cc;strokeColor=#d79b00;" parent="1" vertex="1">
          <mxGeometry x="490" y="810" width="120" height="40" as="geometry" />
        </mxCell>
        <mxCell id="X5R0JDHQ25qrfv0_9PE1-24" value="Ethernet" style="text;html=1;align=center;verticalAlign=middle;whiteSpace=wrap;rounded=0;fontStyle=2" parent="1" vertex="1">
          <mxGeometry x="390" y="790" width="60" height="30" as="geometry" />
        </mxCell>
        <mxCell id="X5R0JDHQ25qrfv0_9PE1-25" value="UdpUc" style="text;html=1;align=center;verticalAlign=middle;whiteSpace=wrap;rounded=0;fontStyle=2" parent="1" vertex="1">
          <mxGeometry x="390" y="820" width="60" height="30" as="geometry" />
        </mxCell>
        <mxCell id="X5R0JDHQ25qrfv0_9PE1-26" value="IRB 1200" style="rounded=0;whiteSpace=wrap;html=1;verticalAlign=middle;fillColor=#f8cecc;strokeColor=#b85450;" parent="1" vertex="1">
          <mxGeometry x="480" y="880" width="140" height="30" as="geometry" />
        </mxCell>
        <mxCell id="QYz4CCSMn2IMzpOUiTUl-1" value="EtherCAT" style="text;html=1;align=center;verticalAlign=middle;whiteSpace=wrap;rounded=0;fontStyle=2" vertex="1" parent="1">
          <mxGeometry x="410" y="140" width="60" height="30" as="geometry" />
        </mxCell>
      </root>
    </mxGraphModel>
  </diagram>
</mxfile>
